<?xml version="1.0" encoding="UTF-8"?>
<svg version="1.1" viewBox="0 0 640 597" xmlns="http://www.w3.org/2000/svg">
 <path d="m172.28 0.46094c-2.8511 0.64983-4.2356 2.6572-4.0938 3.2928-1.7779 1.9187-0.18581 5.9536 0.81259 8.2462l4.4766 3.1777c1.809 1.4944 0.52149 0.37109 0.52149 0.37109l1.2875 1.1233c0.73239 0.82389-0.26848 0.06985 0.59531 0.70288 0.62195 0.5699 1.2658 1.1208 1.9082 1.6719 5.6801 7.4531 22.491 24.783 16.221 33.635-1.56 2.204-4.4999 2.5059-6.9199 1.7539-8.14-2.531-13.02-4.9677-22.09-4.3457-19.4 1.328-38.75 0.88012-58 1.9531-6.52 0.364-10.107 5.8606-16 6.8926-6.304 1.104-15.702-4.313-21-7.248-10.764-5.965-17.123-17.31-14.482-29.688 0.949-4.45 4.3119-8.5695 4.8359-12.98 0.462-3.8828-3.1495-5.043-6.3555-4.9062-13.609 0.5809-16.762 21.333-18.27 31.887-3.799 26.587 13.908 52.738 40.271 59l-1 5c-23.162-7.534-43.034-4.9582-62 11.301-5.7497 4.93-15.607 14.06-12.258 22.68 2.5915 6.68 12.005 8.9007 18.258 10.221 18.008 3.79 35.012 3.2888 53-0.20117-5e-3 8.14-0.66091 17.6-4.3789 25-7.905 15.72-26.095 34.58-14.969 54.77 2.126 3.86 6.9767 2.7703 10.348 4.8203 14.057 8.53 25.338 11.5 42 7.75 4.41-1 14.559-7.739 18.609-5.459 2.83 1.59 4.2606 6.3691 5.6406 9.1191 4.03 8.07 8.47 15.92 12.5 24 10.9 21.8 22.6 43.2 33.5 65 4.4159 8.8414 10.74 18.234 13.727 27.746 1e-4 0.015-9e-5 0.03 0 0.0449-0.14249 6.3783 0.13524 12.732 0.66602 19.07-0.41768 4.4998-0.78597 8.9853-0.22266 13.139 2.7692 20.287 8.3093 41.857 9.0566 62.604 0.12393 6.6624-0.14335 13.343-1 20.051-2.7913 22.518-10.221 44.045-17.965 65.336-7.0607 12.722-17.462 24.249-21.512 38.01l21 5 1 1c9.09 0 30.151 3.2195 36.381-5.2305 4.8574-6.5805 1.0258-18.247 0.32812-27.816 0.14974-4e-3 0.29949-8e-3 0.44922-0.0117-0.3139-2.1379-0.53257-4.8274-0.0762-7.2168 0.13898-0.57585 0.30596-1.1345 0.51758-1.6641 2.09-5.21 9.3407-3.6311 10.971-9.1211 1.6-5.41-0.64101-12.469-1.291-17.939-0.98-8.32-0.75946-17.64-0.18946-26 1.5863-23.133 9.7849-46.254 10.012-69.273 0.052-0.33482 0.10874-0.66902 0.16016-1.0039 0.42257-5.2219 0.2977-11.142-1.6934-16.141-0.17388-0.861-0.36107-1.7214-0.56836-2.582 17.46 2.35 34.58 0.28 51-7 20.3 47.11 63.91 86.53 48.26 143-2.08 7.49-6.0402 13.87-8.9102 21-1.43 3.57-0.86922 7.7-2.9492 11-5.56 8.82-14.58 14.93-18.4 25 15.05 8.55 30.62 7.4806 47 4.3906 4.68-0.87999 12.95-1.4798 16.4-5.0898 1.86-1.95 1.3891-4.8709 2.6191-7.1309 1.44-2.63 4.1912-4.2594 5.2012-7.1894 2.48-7.2-1.8407-19.66-3.2207-26.98 21.64-1.9 11.56-25.89 8-40-6.66-26.33-12.991-52.75-19.881-79-3.79-14.41-9.2091-29.23-11.119-44 20.75 1.64 41.95 1.6 62-5 7.84-2.58 15.6-5.57 23-9.25 2.74-1.36 7.3601-4.8798 10.58-4.0898 2.86 0.72 5.2799 4.1908 7.4199 6.0508 6.01 5.24 17.831 10.03 21.971 16.67 2.57 4.12-0.40109 11.519 3.6289 14.959 4.95 4.22 9.3204-7.2298 10.4-10.34 4.25 4.24 7.79 8.31 14 9l1-18c7.6 1.17 10.67 10.47 17.9 11.42 8.83 1.16 3.139-17.29 4.709-21.25 1.3-3.29 5.1006-5.5499 7.3906-8.1699h1c15.82 29.73 17.02 55.16 9.5 88-3.21 14.03-7.6706 20.13-16.141 31.17-2.09 2.72-1.3894 4.5501 0.64062 6.8301v1l-11 13c6.68 3.88 12.36 5 20 5l-14.619 16-1.3809 8.291-12 15.709v1c21.05 15.03 41.12 11.62 62-1-3.67-9.03-5.5901-22.87 0.0898-31.83 3.71-5.86 12.14-9.1899 11.68-17.17-0.5-8.72-4.4405-17.14-4.7305-26-0.58-18.08 5.2018-38.65 9.8418-56 3.57-13.33 14.078-25.17 15.908-39 1.24-9.42-5.6384-18.03-7.3184-27-2.27-12.1 1.3592-26.19 3.9492-38 5.73-26.08 13.99-52.32 16.41-79 1.19-13.14-0.82024-28.62-1.7402-42-1.1599-16.81-3.3898-35.75-11.09-51 13.03 12.62 14.84 32 16.09 49 2.82 38.53-0.66968 79.8-6.6797 118-3.45 21.94-20.93 52.32 4.5898 69.52 4.56 3.07 8.6-0.45937 12-3.6094 7.62-7.09 11.3-14.61 8.4004-24.91-2.8-9.98-10.751-18.6-12.041-29-1.83-14.86 3.5308-32.06 4.5508-47 3.34-48.66 6.9801-104.24-16.17-149-15.75-30.464-48.03-36.761-79.74-35.984-29.93 0.733-58.92 9.925-88 15.375-22.08 4.13-45.58 5.2695-68 5.2695-24.88 0-50.19-0.87032-75-2.5703-9.22-0.63-18.85 1.0715-28-0.22851-7.51-1.07-14.51-7.3216-22-9.4316-17.41-4.916-33.74-2.8937-51 1.5703-0.38-7.292 5.3309-8.455 9.9609-13.043 5.18-5.136 9.5894-12.026 11.939-18.957 11.02-32.516-20.14-66.502-51.9-69.516-0.2525-0.023946-0.49154-0.031565-0.71875-0.023438zm43.002 566.72c3e-3 0.0269 6e-3 0.0551 0.01 0.082-0.0129 9e-3 -0.0264 0.0179-0.0391 0.0273 0.0104-0.0373 0.019-0.0722 0.0293-0.10938z" fill="#fff"/>
</svg>
