<?xml version="1.0" encoding="UTF-8"?>
<svg width="190.01" height="140.61" viewBox="-0.736 -0.722 511 454" xmlns="http://www.w3.org/2000/svg">
 <path fill="#fff" d="m168.64 288.57-4.1534-0.69224c-11.076-1.1537-21.921-4.6149-31.612-10.153-7.8454-4.1534-15.229-8.7684-22.844-13.614-3.6919-2.3075-6.6916-5.3072-9.4606-8.7684-2.769-3.6919-5.9994-7.3839-9.2298-11.076l-5.0764-8.0761-5.0764-8.7684-5.3072-9.6913-12.23-28.151-7.3839-16.152-3.6919-9.2298-4.1534-12.691-1.6152-5.3072-1.3845-5.3072-0.92298-2.9997c-2.5382-7.8454-7.6146-14.537-14.768-18.921-2.0767-1.1537-4.6149-1.846-7.1531-1.846h-0.92298c-12.46 0.69224-24.69 2.3075-36.689 5.3072-6.2302 1.3845-12.46 1.6152-18.69 0.69224-1.6152-0.23075-3.2304-0.92299-4.6149-2.0767-2.9997-1.846-5.3072-4.1534-6.9224-6.9224-3.4612-5.0764-5.0764-11.076-4.8457-16.844 0-2.3075 0.92299-4.3842 2.5382-5.9994l3.4612-5.5379 3.9227-5.3072 4.3842-4.6149 6.9224-7.1531 15.921-14.306c5.0764-4.8457 9.6913-10.384 13.383-16.383l1.1537-2.5382 1.3845-3.4612c1.6152-5.3072 5.0764-9.6913 9.9221-12.46 10.614-5.7686 22.152-9.4606 34.15-10.845l2.5382-1.846c5.9994-4.1534 13.383-5.9994 20.536-5.3072l3.4612 7.1531 6.4609 15.229 8.0761 5.3072 31.612 24.459c14.768 11.768 31.612 20.998 49.38 26.997 4.3842 1.6152 8.9991 2.3075 13.614 2.3075h2.0767c2.9997-0.23075 5.7686-0.46149 8.5376-0.69224 3.6919-0.23075 7.6146-0.23075 11.307 0.23075 3.4612 0.46149 6.6916 0.69224 9.9221 0.69224 4.1534 0 8.3069-0.46149 12.23-0.92298l17.537-1.1537 14.537-1.1537 14.537-1.1537 17.767-2.3075c11.768-1.3845 22.152-2.9997 32.304-4.8457 14.076-2.5382 29.074-3.6919 44.072-3.2304h1.3845c6.6916 0 13.383-0.69224 19.844-2.0767 9.4606-2.0767 19.152-3.6919 28.843-4.1534 8.3069-0.69224 15.921-1.1537 23.536-1.3845 16.614-0.46149 33.458 1.846 49.841 6.6916 14.076 3.9227 26.997 11.537 38.073 21.229 2.769 2.769 5.0764 5.7686 7.3839 8.9991l2.3075 2.0767c12.691 10.614 20.075 26.536 20.075 43.15 0 4.6149-0.46149 8.7684-1.6152 13.153-0.23074 1.846-1.3845 3.2304-2.9997 4.1534-2.0767 1.1537-4.3842 2.3075-6.6916 3.9227-2.3075 1.1537-3.2304 2.769-3.2304 4.6149 0 0.46149 0.23075 0.92298 0.23075 1.3845l0.92298 7.8454c0.23075 2.9997 0.4615 5.7686 0.4615 8.7684 0 8.9991-1.3845 17.767-4.1534 26.305-2.769 8.9991-6.2302 17.767-10.153 26.305-4.3842 9.2298-6.4609 19.383-6.4609 29.305 0 5.5411 0.69223 10.845 1.846 16.152 1.1537 4.3842 2.9997 8.5376 5.7687 12.46 5.0764 6.6916 9.6913 13.614 14.076 20.536 0.69224 0.92299 0.92298 2.3075 0.92298 3.6919 0 1.6152-0.46149 3.2304-1.3845 4.3842-2.9997 3.6919-5.0764 7.6146-6.6916 11.768-4.8457 11.768-7.3839 24.459-7.3839 37.381 0 0.92298 0 1.846 0.23075 2.769v1.846c0 4.1534-0.46149 8.3069-1.1537 12.46-0.23075 1.3845-0.23075 2.9997-0.23075 4.3842 0 2.5382 0.23075 4.8457 0.92299 7.1531 0.23074 0.92298 0.46149 2.0767 0.46149 3.2304 0 1.846-0.69224 3.6919-1.3845 5.5379-2.769 5.0764-5.9994 9.9221-9.4606 14.537-1.3845 1.6152-2.3075 3.2304-2.9997 5.0764-0.92298 2.769-2.3075 5.5379-3.9227 8.0761-1.3845 2.3075-2.9997 4.3842-5.0764 6.4609-1.6152 1.6152-3.6919 2.769-5.7687 3.4612l-9.4606 0.4615h-9.2298c-3.4612 0-6.4609-2.769-6.9224-6.2302-0.23074-1.6152 0.23075-3.2304 1.6152-4.3842 2.9997-2.9997 6.4609-5.5379 10.153-7.8454 3.9227-2.769 7.1531-6.4609 9.4606-10.614 1.846-3.2304 3.6919-5.9994 5.3072-8.7684 1.6152-2.5382 2.769-5.3072 3.4612-8.5376 1.1537-4.8457 2.0767-10.153 2.9997-15.229 0.46149-2.5382 0.69224-5.5379 0.69224-8.3069 0-2.3075-0.23075-4.6149-0.4615-6.6916-0.92298-8.3069-2.0767-16.614-3.4612-24.921-3.4612-21.69-14.768-40.381-31.612-53.302l-0.4615 3.4612c-0.46149 3.6919-0.69224 7.6146-0.69224 11.307 0 4.1534 0.23075 8.3069 0.69224 12.23 0.23075 1.3845 0.23075 2.9997 0.23075 4.3842 0 6.9224-1.846 13.845-5.3072 19.844-1.6152 2.769-3.4612 5.3072-5.0764 8.0761-2.9997 4.3842-5.0764 9.2298-6.4609 13.845-0.92298 2.9997-1.846 6.2302-2.769 9.4606-1.1537 4.1534-2.5382 8.0761-4.1534 12.23-2.3075 5.7686-4.8457 11.537-7.8454 16.844-3.2304 5.3072-6.4609 11.076-9.9221 16.614-2.0767 3.2304-4.3842 5.7687-7.1531 7.8454-1.6152 1.1537-3.4612 2.0767-5.3072 2.769-2.769 0.92299-5.3072 2.5382-7.3839 4.6149-2.769 2.9997-6.2302 5.5379-9.6913 7.6146-4.1534 2.5382-8.5376 3.9227-13.383 4.1534-7.1531 0.23074-14.076-0.92299-20.767-3.6919-1.1537-0.46149-1.6152-1.6152-1.3845-2.5382 0.23075-1.6152 0.92298-2.9997 1.846-4.1534l3.2304-2.3075 4.1534-2.5382 5.7687-2.9997 6.6916-3.2304 8.9991-3.9227c2.5382-1.1537 4.8457-2.9997 6.4609-5.3072 2.3075-2.769 4.6149-5.5379 6.6916-8.5376 1.3845-2.0767 2.5382-4.3842 3.4612-7.1531 1.1537-4.1534 3.6919-8.0761 6.9224-11.076 1.6152-1.846 2.9997-3.6919 3.9227-6.2302 2.0767-5.7686 3.9227-11.999 5.3072-17.998 1.846-6.9224 3.6919-12.922 5.7686-19.383 0.92298-2.5382 1.3845-5.7686 1.3845-8.9991v-16.152l-0.4615-11.076-0.69223-11.768-2.769-24.921-1.1537-9.2298-6.4609 2.0767c-9.9221 2.769-20.998 5.9994-32.304 9.2298-9.6913 2.9997-15.46 4.1534-21.229 4.8457-7.6146 0.69224-15.46 1.6152-23.305 2.5382-6.4609 0.92299-12.922 2.0767-19.613 3.2304-12.23 2.3075-23.998 3.4612-35.766 3.6919-12.46 0.23074-28.151 0.23074-43.611 0.46149l-3.2304 6.9224c1.6152 8.3069 2.5382 16.844 2.5382 25.151 0 2.0767-0.23075 4.1534-0.4615 6.2301v1.6152c0 3.4612 0.69224 7.1531 1.846 10.384 2.769 8.5376 5.5379 17.075 8.7684 25.613 1.6152 4.8457 3.2304 10.614 4.1534 16.383 0.23075 2.0767 1.1537 4.1534 2.0767 5.7686l1.6152 3.9227 3.4612 7.6146 2.3075 5.5379 1.846 4.1534 0.69224 2.5382c0.46149 1.3845 0.69223 2.769 0.69223 4.1534 0 2.5382-0.69223 4.6149-1.6152 6.6916-2.769 5.7686-5.7687 11.307-9.2299 16.844-2.769 4.3842-7.1531 7.1531-11.999 8.0761-1.1537 0.23075-2.5382 0.23075-3.6919 0.23075-5.0764 0-10.153-0.4615-14.998-1.3845-4.1534-0.69224-5.5379-5.5379-2.5382-8.3069l8.0761-8.0761 3.4612-3.6919 2.0767-2.3075c2.769-3.2304 4.3842-7.3839 4.6149-11.537v-0.46149c0-2.9997-0.4615-5.9994-1.6152-8.5376l-2.5382-8.5376-0.92299-4.1534-1.1537-4.6149-2.0767-5.9994-1.3845-4.3842-2.9997-6.4609-2.5382-5.0764c-2.3075-4.8457-4.6149-9.9221-6.9224-14.998-2.3075-5.7687-4.1534-11.768-5.3072-17.767-0.69224-3.6919-1.3845-7.6146-1.846-11.537-0.23075-2.3075-0.69224-4.3842-0.92298-6.6916-0.23075-3.4612-1.6152-6.6916-3.4612-9.4606-1.846-2.3075-3.4612-5.3072-4.8457-8.0761-0.69224-1.846-1.3845-3.6919-1.846-5.5379l-1.846 6.2301-2.0767 4.6149-1.3845 4.3842-2.0767 3.9227-2.0767 4.6149-1.3845 3.4612-1.3845 3.2304c-1.6152 3.6919-2.5382 7.8454-2.9997 11.999-0.46149 2.9997-0.92298 6.2301-1.3845 9.6913-0.69224 4.1534-0.92299 7.8454-1.1537 11.768 0 4.6149-0.69224 9.4606-2.0767 13.845-1.6152 5.9994-2.769 12.23-3.2304 18.229-0.4615 3.2304-0.92299 6.9224-1.3845 10.384-1.1537 7.6146-3.4612 14.998-7.1531 21.921-1.1537 2.3075-2.3075 4.8457-3.2304 7.3839-0.46149 1.6152-1.6152 4.1534-2.5382 6.9224-1.846 4.8457-4.1534 8.0761-7.3839 10.384-5.0764 3.6919-11.307 5.3072-17.537 4.8457-2.3075-0.23074-5.3072-0.46149-8.3069-0.92298-2.769-0.23075-5.0764-0.92299-7.3839-2.0767-2.5382-1.6152-2.9997-5.3072-0.69224-7.3839 3.2304-2.769 5.7687-4.8457 8.3069-7.1531 2.5382-2.0767 4.6149-3.6919 6.6916-5.7686l1.846-4.3842 2.5382-5.5379 2.769-5.7686 4.3842-5.9994 2.3075-2.5382c3.2304-3.2304 5.3072-7.6146 5.9994-12.23l2.0767-14.537c0.46149-3.2304 0.69224-6.9224 0.69224-10.384v-1.6152c0-4.1534 0.46149-8.3069 1.6152-12.46 0.69224-2.769 1.1537-5.7687 1.1537-8.9991 0-3.4612-0.46149-6.9224-1.6152-10.153-0.69224-2.0767-1.3845-4.3842-1.846-6.6916-1.846-7.6146-2.9997-15.46-2.5382-23.305v-15.46z"/>
</svg>
